<svg width="75" height="75" viewBox="0 0 75 75" fill="none" xmlns="http://www.w3.org/2000/svg">
<path d="M69.2205 30.047L51.049 23.324L44.326 5.15256C43.2042 2.13296 40.3306 0.135252 37.1189 0.135252C33.8995 0.135252 31.0259 2.13296 29.9118 5.15256L23.1811 23.324L5.01731 30.047C1.9977 31.1688 0 34.0425 0 37.2541C0 40.4658 1.9977 43.3395 5.01731 44.4613L23.1811 51.1843L29.9118 69.3557C31.0259 72.3753 33.8995 74.373 37.1189 74.373C40.3306 74.373 43.2042 72.3753 44.326 69.3557L51.049 51.1843L69.2205 44.4613C72.2401 43.3395 74.2378 40.4658 74.2378 37.2541C74.2378 34.0425 72.2401 31.1688 69.2205 30.047Z" fill="white"/>
</svg>
