<svg width="112" height="130" viewBox="0 0 112 130" fill="none" xmlns="http://www.w3.org/2000/svg">
<path d="M108.973 60.0886L73.0682 46.7983L59.6609 2.85651C59.1445 1.16195 57.579 -4.57764e-05 55.8038 -4.57764e-05C54.0325 -4.57764e-05 52.4631 1.16195 51.9466 2.85651L38.5434 46.7983L2.63465 60.0886C1.04902 60.6776 0 62.1866 0 63.8731C0 65.5596 1.04902 67.0726 2.63465 67.6536L38.5272 80.9398L51.9345 126.221C52.4429 127.936 54.0164 129.11 55.8038 129.11C57.5911 129.11 59.1647 127.936 59.673 126.221L73.0843 80.9398L108.977 67.6536C110.559 67.0726 111.608 65.5596 111.608 63.8731C111.608 62.1866 110.559 60.6776 108.973 60.0886Z" fill="white"/>
</svg>
