<svg width="50" height="62" viewBox="0 0 50 62" fill="none" xmlns="http://www.w3.org/2000/svg">
<path d="M45.8878 25.2889L34.2568 20.9845L29.7312 4.39042C29.1328 2.19799 27.1465 0.679382 24.8787 0.679382C22.6108 0.679382 20.6245 2.19799 20.0261 4.39042L15.5005 20.9845L3.86955 25.2889C1.89335 26.018 0.585938 27.9037 0.585938 30.0006C0.585938 32.1025 1.89335 33.9882 3.86955 34.7174L15.4401 39.0067L20.001 57.2199C20.5592 59.4526 22.5706 61.0215 24.8787 61.0215C27.1817 61.0215 29.1931 59.4526 29.7563 57.2199L34.3172 39.0067L45.8878 34.7174C47.864 33.9882 49.1714 32.1025 49.1714 30.0006C49.1714 27.9037 47.864 26.018 45.8878 25.2889Z" fill="white"/>
</svg>
